HIERARCHY
ROOT Hips
{
	OFFSET 0.000000 0.000000 0.000000 
	CHANNELS 6 Xposition Yposition Zposition Yrotation Zrotation Xrotation 
	JOINT Lumbar
	{
		OFFSET 0.000000 0.000000 0.000000 
		CHANNELS 3 Zrotation Xrotation Yrotation
		JOINT Neck
		{
			OFFSET 0.000000 0.445665 0.000000 
			CHANNELS 3 Zrotation Xrotation Yrotation
			End Site
			{
				OFFSET 0.000000 0.227535 0.000000 
			}
		}
		JOINT RightShoulder
		{
			OFFSET 0.019635 0.377685 0.194865 
			CHANNELS 3 Zrotation Xrotation Yrotation
			JOINT RightElbow
			{
				OFFSET 0.000000 -0.243375 0.000000 
				CHANNELS 2 Zrotation Yrotation
				JOINT RightWrist
				{
					OFFSET 0.000000 -0.264825 0.000000 
					CHANNELS 2 Zrotation Xrotation
					End Site
					{
						OFFSET 0.006600 -0.176220 0.000990 
					}
				}
			}
		}
		JOINT LeftShoulder
		{
			OFFSET 0.019635 0.377685 -0.194865 
			CHANNELS 3 Zrotation Xrotation Yrotation
			JOINT LeftElbow
			{
				OFFSET 0.000000 -0.243375 0.000000 
				CHANNELS 2 Zrotation Yrotation
				JOINT LeftWrist
				{
					OFFSET 0.000000 -0.264825 0.000000 
					CHANNELS 2 Zrotation Xrotation
					End Site
					{
						OFFSET 0.006600 -0.176220 -0.000990 
					}
				}
			}
		}
	}
	JOINT RightHip
	{
		OFFSET 0.052140 -0.069960 0.075570 
		CHANNELS 3 Zrotation Xrotation Yrotation
		JOINT RightKnee
		{
			OFFSET 0.000000 -0.402270 0.000000 
			CHANNELS 1 Zrotation
			JOINT RightAnkle
			{
				OFFSET 0.000000 -0.404085 0.000000 
				CHANNELS 3 Zrotation Xrotation Yrotation
				End Site
				{
					OFFSET 0.204105 -0.089430 0.008415 
				}
			}
		}
	}
	JOINT LeftHip
	{
		OFFSET 0.052140 -0.069960 -0.075570 
		CHANNELS 3 Zrotation Xrotation Yrotation
		JOINT LeftKnee
		{
			OFFSET 0.000000 -0.402270 0.000000 
			CHANNELS 1 Zrotation
			JOINT LeftAnkle
			{
				OFFSET 0.000000 -0.404085 0.000000 
				CHANNELS 3 Zrotation Xrotation Yrotation
				End Site
				{
					OFFSET 0.204105 -0.089430 -0.008415 
				}
			}
		}
	}
}
MOTION
Frames: 32
Frame Time: 0.02
1.34762 0.00106 -0.75722 -387.10525 -35.56776 -8.76 38.0731 0.6815 3.35494 4.56054 11.13417 -0.83079 65.56854 -11.08978 18.59081 123.45751 116.49437 -56.01503 -6.94368 -56.40468 62.21829 -44.3658 112.40101 -115.01529 -38.98635 7.59806 40.07948 -5.89734 -4.32198 -22.29298 -7.17281 -3.7048 -2.59027 30.59095 -2.37591 2.6131 -11.13972 -6.38469 3.37167 2.43087
1.35631 0.00115 -0.75405 -387.17449 -35.56132 -8.88166 37.96105 0.91525 2.95938 4.54032 10.54965 -0.83079 67.12761 -11.0967 18.89777 122.56591 114.74286 -53.83287 -6.8116 -57.55529 61.65711 -42.80249 112.27008 -118.27252 -40.30466 8.09344 42.09113 -5.97294 -4.57382 -21.84886 -7.09486 -3.57366 -2.51623 28.91349 -2.33603 -1.55714 -9.07525 -4.37277 8.09138 5.18723
1.36505 0.0011 -0.75063 -387.08731 -35.58705 -8.91778 37.89093 1.11721 2.55354 4.50358 9.86017 -0.83079 68.64811 -11.16312 19.32935 121.64879 112.22354 -50.90359 -6.61331 -59.26413 60.55357 -40.30508 112.05234 -123.44457 -42.46737 8.86718 44.08892 -6.10643 -4.79942 -21.45115 -7.0425 -3.4412 -2.44407 27.15792 -2.32451 -6.49024 -6.83744 -1.81388 13.81562 8.54227
1.37381 0.00108 -0.74729 -387.06105 -35.60022 -8.98707 37.80706 1.33222 2.153 4.47756 9.21485 -0.83079 70.18848 -11.20937 19.69665 120.74329 110.1595 -48.44213 -6.45308 -60.61267 59.74342 -38.36929 111.86155 -127.4506 -44.08922 9.47312 46.08974 -6.21812 -5.01554 -21.06362 -6.9753 -3.31263 -2.37272 25.46657 -2.30009 -10.6319 -4.73928 0.41957 18.53701 11.32399
1.38238 0.00118 -0.74407 -387.07964 -35.60461 -9.08023 37.70146 1.55359 1.7508 4.43363 8.58175 -0.83079 71.71852 -11.21872 20.09757 119.83622 107.65715 -45.45553 -6.2599 -62.39425 58.74588 -35.87832 111.72372 -132.63605 -46.33757 10.24362 48.11115 -6.31358 -5.32249 -20.53635 -6.92006 -3.16225 -2.29005 23.65492 -2.27724 -16.60707 -2.38343 2.97601 25.50426 15.34508
1.39138 0.001 -0.74055 -386.96635 -35.63475 -9.10297 37.65075 1.75369 1.35013 4.42548 7.89986 -0.83079 73.26388 -11.32429 20.45972 118.92513 105.86947 -43.36397 -6.11861 -63.42071 58.00196 -34.30276 111.45608 -135.88275 -47.51595 10.74656 50.07814 -6.45605 -5.43826 -20.31278 -6.84711 -3.05961 -2.23285 22.07385 -2.25711 -19.00759 -0.52261 4.99265 28.11168 16.96947
1.40146 0.00016 -0.73635 -386.53437 -35.73125 -8.95819 37.74285 1.90628 0.94524 4.51158 7.10248 -0.83079 74.82633 -11.65301 20.65756 118.03123 106.39388 -44.11647 -6.14646 -62.12742 58.13953 -35.61045 110.83668 -132.84041 -45.27314 10.37415 51.96707 -6.70646 -4.97608 -20.93358 -6.71283 -3.09409 -2.24812 21.16249 -2.23916 -10.78114 -0.08173 5.35644 17.74358 11.45778
1.41198 -0.00096 -0.73183 -385.9737 -35.85234 -8.74462 37.88885 2.03786 0.54407 4.63668 6.26129 -0.83079 76.41137 -12.08179 20.81659 117.13055 107.63931 -45.76304 -6.22727 -60.07294 58.54221 -37.84799 110.09239 -127.86044 -41.96844 9.73443 53.78841 -7.00232 -4.331 -21.85655 -6.56118 -3.17686 -2.28911 20.48365 -2.22218 0.9616 -0.14345 5.16479 3.08558 3.58407
1.42234 -0.00198 -0.7274 -385.46689 -35.95977 -8.55852 38.00845 2.17681 0.14805 4.74968 5.44445 -0.83079 78.00873 -12.48479 21.01038 116.21896 108.45236 -46.87233 -6.27724 -58.43419 58.78948 -39.57254 109.41424 -124.09241 -39.33053 9.26472 55.59604 -7.28296 -3.80731 -22.63136 -6.42159 -3.2355 -2.31731 19.68886 -2.20389 10.72534 0.03192 5.24397 -9.16101 -2.96693
1.43253 -0.0029 -0.72321 -384.97355 -36.07752 -8.38484 38.13551 2.32396 -0.2774 4.83703 4.60447 -0.83079 79.51045 -12.80954 21.13617 115.36541 109.66824 -48.49671 -6.35253 -56.52595 59.16098 -41.63904 108.69237 -119.03911 -35.97055 8.60696 57.59242 -7.54604 -3.12592 -23.45348 -6.2651 -3.30333 -2.35021 18.93339 -2.19151 22.08076 0.17752 5.25825 -23.33865 -10.55588
1.44319 -0.0041 -0.71842 -384.42437 -36.18082 -8.17079 38.26183 2.44931 -0.64028 4.98888 3.80453 -0.83079 81.21596 -13.31664 21.39287 114.38981 110.24188 -49.28499 -6.38973 -54.98364 59.34928 -43.23554 108.03441 -116.11837 -33.81828 8.26477 59.17771 -7.85158 -2.72402 -24.24809 -6.13957 -3.36331 -2.37932 18.15397 -2.16512 30.95352 0.2625 5.27657 -34.50555 -16.54354
1.45491 -0.00602 -0.71215 -383.74787 -36.22379 -7.85668 38.35098 2.52093 -0.83343 5.29558 3.11953 -0.83079 83.48828 -14.33314 22.01833 113.0786 108.7381 -47.42529 -6.29903 -54.70033 58.92014 -43.22864 107.5718 -120.0728 -35.5477 8.93693 59.66157 -8.29863 -3.19065 -24.89538 -6.10195 -3.39219 -2.39275 17.23689 -2.11279 32.21929 0.31048 5.36111 -36.48831 -17.60207
1.46711 -0.00822 -0.70525 -383.02201 -36.25361 -7.50603 38.44136 2.57123 -0.96323 5.6683 2.47834 -0.83079 85.96213 -15.52308 22.77629 111.6454 106.59235 -44.72112 -6.17044 -54.79815 58.30787 -42.73426 107.18029 -126.14174 -38.47546 9.92102 59.73078 -8.78003 -3.93658 -25.50457 -6.09623 -3.41104 -2.40124 16.29052 -2.04365 30.8488 0.31242 5.47403 -35.26538 -16.95676
1.47916 -0.01031 -0.69855 -382.32158 -36.29916 -7.17575 38.54539 2.63056 -1.12069 6.02011 1.82141 -0.83079 88.3391 -16.61425 23.47489 110.26781 104.82605 -42.48438 -6.06578 -54.67648 57.81415 -42.52097 106.76453 -130.88853 -40.657 10.70882 59.97879 -9.22211 -4.51894 -26.12848 -6.0771 -3.43304 -2.41133 15.36792 -1.97367 30.61768 0.32984 5.63335 -35.3968 -17.04911
1.49093 -0.01234 -0.69221 -381.60077 -36.30566 -6.82599 38.59147 2.69192 -1.28307 6.33566 1.14408 -0.83079 90.744 -17.79588 24.17012 108.88749 102.70775 -39.91878 -5.93413 -54.71977 57.18452 -42.09476 106.31094 -137.06641 -43.63657 11.71366 60.26568 -9.76559 -5.24413 -26.77114 -6.05311 -3.46292 -2.4252 14.41041 -1.93995 30.7563 0.3533 5.55282 -36.10706 -17.38095
1.50339 -0.01455 -0.68497 -380.9163 -36.38848 -6.51045 38.75764 2.74426 -1.41985 6.74091 0.52172 -0.83079 93.13225 -18.82558 24.90239 107.48618 101.16889 -37.83405 -5.84958 -54.52513 56.78566 -41.97592 105.95389 -140.82513 -45.27321 12.34904 60.37335 -10.10583 -5.7474 -27.36523 -6.04662 -3.47307 -2.4295 13.51416 -1.82618 29.45339 0.35919 5.94872 -34.79832 -16.7753
1.51757 -0.01727 -0.67548 -380.31192 -36.69799 -6.287 39.25614 2.77703 -1.50427 7.38603 0.02818 -0.83079 95.47646 -19.42179 25.72123 106.0387 101.31285 -37.20985 -5.89914 -53.53721 57.11614 -42.89495 105.85349 -137.09472 -42.73109 11.84481 60.09024 -9.87181 -5.51117 -27.79958 -6.08447 -3.43376 -2.41017 12.80587 -1.49956 24.80033 0.33414 7.97806 -28.65397 -14.02013
1.53244 -0.02015 -0.66508 -379.75259 -37.08186 -6.10186 39.87463 2.80159 -1.56453 8.1172 -0.4091 -0.83079 97.78692 -19.85339 26.56983 104.57824 102.06973 -37.10635 -5.99801 -52.30817 57.67574 -44.12333 105.84703 -130.91986 -38.83399 10.96721 59.63891 -9.43222 -5.05361 -28.18881 -6.13819 -3.37432 -2.38099 12.15696 -1.09205 18.77726 0.29389 10.4318 -20.58149 -10.36823
1.54703 -0.02291 -0.65503 -379.19445 -37.42373 -5.90684 40.43771 2.82988 -1.63407 8.80361 -0.86382 -0.83079 100.07959 -20.34101 27.39401 103.13493 102.5946 -36.81074 -6.07759 -51.2219 58.09728 -45.15869 105.79336 -126.06609 -35.67936 10.29033 59.26576 -9.09014 -4.7368 -28.62332 -6.18228 -3.32208 -2.35507 11.47194 -0.71901 13.36744 0.25953 12.47613 -13.39168 -7.09536
1.56147 -0.02588 -0.64526 -378.54281 -37.80145 -5.67821 41.00608 2.85722 -1.7088 9.51707 -1.35113 -0.83079 102.52065 -20.91361 28.26875 101.63767 102.91218 -36.30548 -6.14316 -50.00958 58.65314 -46.39574 105.76125 -120.4011 -32.03295 9.49375 58.87907 -8.73394 -4.26074 -28.96258 -6.23781 -3.27738 -2.33393 10.82423 -0.35554 7.88836 0.22932 15.41959 -6.04009 -3.86866
1.57639 -0.02843 -0.63469 -378.09758 -38.12025 -5.52978 41.59 2.88512 -1.76754 10.19267 -1.75805 -0.83079 104.64014 -21.2684 29.04355 100.25404 103.80139 -36.36236 -6.24955 -48.99607 58.98943 -47.29651 105.70554 -115.81338 -29.07113 8.85299 58.4757 -8.35551 -4.05934 -29.47683 -6.27272 -3.21278 -2.30081 10.11367 0.04743 2.28597 0.18527 16.61046 1.3591 -0.37504
1.59251 -0.02987 -0.62208 -378.20946 -38.27581 -5.58815 42.20285 2.91419 -1.78975 10.75194 -1.95422 -0.83079 105.89504 -21.05634 29.53463 99.16432 106.24219 -37.92617 -6.46141 -48.60398 58.63473 -47.15869 105.56261 -114.8315 -28.34895 8.73993 58.15765 -7.98625 -4.67487 -30.59638 -6.24777 -3.09459 -2.23516 9.218 0.53275 -3.51585 0.11563 12.69349 8.67725 3.80197
1.60907 -0.03087 -0.60871 -378.52823 -38.36613 -5.72678 42.82365 2.94456 -1.79622 11.2683 -2.07206 -0.83079 106.82411 -20.63117 29.92378 98.19414 109.21778 -40.02719 -6.71181 -48.41607 58.05781 -46.68061 105.39238 -115.00198 -28.35355 8.79397 57.81365 -7.59794 -5.57079 -31.87207 -6.20117 -2.95812 -2.15837 8.26113 1.05479 -9.34295 0.0234 7.03216 15.90752 8.17477
1.62541 -0.03202 -0.59571 -378.75364 -38.475 -5.83268 43.43159 2.97611 -1.80969 11.79761 -2.22767 -0.83079 107.89081 -20.30609 30.35888 97.18519 111.87042 -41.83182 -6.94179 -48.12384 57.60181 -46.38307 105.2334 -114.61219 -28.00753 8.76589 57.42478 -7.20465 -6.33595 -33.00479 -6.16375 -2.83195 -2.08765 7.32469 1.56629 -15.02134 -0.05413 2.27291 22.99889 12.34421
1.64187 -0.03338 -0.58258 -378.9774 -38.63394 -5.92531 44.08552 3.00026 -1.82489 12.3567 -2.37231 -0.83079 108.99863 -19.9607 30.7956 96.11081 114.87951 -43.87217 -7.1863 -47.87157 57.0679 -45.98633 105.08173 -114.29104 -27.69971 8.75076 57.26996 -6.86106 -7.11362 -34.44381 -6.1298 -2.69521 -2.0115 6.40285 2.06057 -21.33844 -0.11888 -2.94723 30.93582 17.03961
1.65814 -0.03421 -0.56957 -379.25366 -38.67133 -6.06264 44.64054 3.03976 -1.8306 12.84358 -2.52169 -0.83079 109.94626 -19.61038 31.20568 95.20031 117.26763 -45.54562 -7.40833 -47.58832 56.64259 -45.71186 104.90824 -114.13444 -27.5038 8.75353 56.62256 -6.41302 -7.92718 -35.27767 -6.08312 -2.57825 -1.94519 5.45867 2.59098 -26.30055 -0.25562 -7.60955 37.03853 20.6607
1.67396 -0.03368 -0.55698 -379.62054 -38.39558 -6.31592 44.94934 3.12512 -1.83479 13.13068 -2.70571 -0.83079 110.50889 -19.28822 31.55505 94.72254 117.787 -46.0457 -7.56484 -47.1644 56.55226 -45.85406 104.671 -114.14692 -27.43827 8.76405 54.63215 -5.67515 -8.82569 -34.44231 -6.00467 -2.51381 -1.90462 4.2653 3.27652 -27.61067 -0.23147 -10.46075 38.31937 21.37935
1.68953 -0.03263 -0.54456 -380.0341 -37.99833 -6.6086 45.15237 3.22501 -1.82579 13.34779 -2.89697 -0.83079 110.92513 -18.97113 31.88301 94.40433 117.66395 -46.16069 -7.69589 -46.70434 56.58081 -46.13047 104.41408 -114.30278 -27.47113 8.7894 52.14587 -4.83575 -9.73439 -32.98463 -5.91236 -2.47745 -1.87861 3.0875 3.9857 -27.53173 -0.33794 -12.66566 37.71255 20.98801
1.70509 -0.03183 -0.53214 -380.42789 -37.65181 -6.8755 45.38424 3.31607 -1.80986 13.60414 -3.08374 -0.83079 111.42415 -18.65938 32.22884 94.00638 117.84764 -46.46853 -7.83463 -46.26551 56.56715 -46.34649 104.17249 -114.40117 -27.46109 8.80958 49.88029 -4.04691 -10.61292 -31.78668 -5.8302 -2.42479 -1.84431 2.03711 4.64018 -28.01807 -0.6258 -15.06339 37.80612 21.02222
1.72121 -0.03099 -0.51936 -380.82077 -37.32128 -7.1799 45.69749 3.4174 -1.8497 13.82927 -3.27315 -0.83079 111.84619 -18.30806 32.5377 93.64125 117.98935 -46.72076 -7.99174 -45.81367 56.49828 -46.54769 103.9034 -114.48588 -27.45142 8.8263 47.63299 -3.23553 -11.63837 -30.6943 -5.73954 -2.36097 -1.80249 0.4234 5.47754 -28.78269 0.07276 -17.93826 38.53537 21.38242
1.73608 -0.0301 -0.50739 -381.22652 -36.93034 -7.41273 45.81619 3.49976 -1.76821 14.10135 -3.45939 -0.83079 112.39427 -18.04287 32.91861 93.24644 118.05711 -46.98949 -8.10328 -45.37731 56.57264 -46.8168 103.68681 -114.64336 -27.47573 8.85465 45.23063 -2.45114 -12.31966 -29.22884 -5.65293 -2.3592 -1.7977 -0.02077 5.94418 -28.63993 -1.27738 -19.65497 37.52752 20.81553
1.74766 -0.02922 -0.49756 -381.63353 -36.39503 -7.45303 45.42167 3.53495 -1.37454 14.53735 -3.63903 -0.83079 113.35986 -18.0182 33.51408 92.71015 118.0896 -47.40051 -8.10172 -44.99773 57.03846 -47.23221 103.62439 -114.74312 -27.38456 8.88435 42.52071 -1.73361 -12.37349 -26.91772 -5.67692 -2.23944 -1.73404 2.83388 5.33738 -26.30581 -8.56566 -18.22074 31.88337 17.79954
